<svg width="34" height="34" viewBox="0 0 34 34" fill="none" xmlns="http://www.w3.org/2000/svg">
<g id="mdi:family-tree">
<path id="Vector" d="M17 1.41663C16.0607 1.41663 15.1599 1.78976 14.4957 2.45396C13.8315 3.11815 13.4584 4.01898 13.4584 4.95829C13.4587 5.64711 13.6599 6.32087 14.0374 6.89708C14.4148 7.47329 14.9521 7.92693 15.5834 8.20246V9.91663H9.91671C9.16526 9.91663 8.44459 10.2151 7.91324 10.7465C7.38188 11.2778 7.08337 11.9985 7.08337 12.75V13.7558C6.45206 14.0313 5.9148 14.485 5.53737 15.0612C5.15994 15.6374 4.95873 16.3111 4.95837 17C4.95873 17.6888 5.15994 18.3625 5.53737 18.9387C5.9148 19.515 6.45206 19.9686 7.08337 20.2441V21.25H5.66671C4.91526 21.25 4.19459 21.5485 3.66324 22.0798C3.13188 22.6112 2.83337 23.3318 2.83337 24.0833V25.7975C2.20206 26.073 1.6648 26.5266 1.28737 27.1028C0.90994 27.679 0.708729 28.3528 0.708374 29.0416C0.708374 29.9809 1.08151 30.8818 1.7457 31.546C2.07458 31.8748 2.46501 32.1357 2.8947 32.3137C3.3244 32.4917 3.78494 32.5833 4.25004 32.5833C5.18935 32.5833 6.09019 32.2102 6.75438 31.546C7.41857 30.8818 7.79171 29.9809 7.79171 29.0416C7.79135 28.3528 7.59014 27.679 7.21271 27.1028C6.83528 26.5266 6.29802 26.073 5.66671 25.7975V24.0833H11.3334V25.7975C10.7021 26.073 10.1648 26.5266 9.78737 27.1028C9.40994 27.679 9.20873 28.3528 9.20837 29.0416C9.20837 29.9809 9.58151 30.8818 10.2457 31.546C10.9099 32.2102 11.8107 32.5833 12.75 32.5833C13.2151 32.5833 13.6757 32.4917 14.1054 32.3137C14.5351 32.1357 14.9255 31.8748 15.2544 31.546C15.5833 31.2171 15.8441 30.8267 16.0221 30.397C16.2001 29.9673 16.2917 29.5067 16.2917 29.0416C16.2914 28.3528 16.0901 27.679 15.7127 27.1028C15.3353 26.5266 14.798 26.073 14.1667 25.7975V24.0833C14.1667 23.3318 13.8682 22.6112 13.3368 22.0798C12.8055 21.5485 12.0848 21.25 11.3334 21.25H9.91671V20.2441C10.548 19.9686 11.0853 19.515 11.4627 18.9387C11.8401 18.3625 12.0414 17.6888 12.0417 17C12.0414 16.3111 11.8401 15.6374 11.4627 15.0612C11.0853 14.485 10.548 14.0313 9.91671 13.7558V12.75H24.0834V13.7558C23.4521 14.0313 22.9148 14.485 22.5374 15.0612C22.1599 15.6374 21.9587 16.3111 21.9584 17C21.9587 17.6888 22.1599 18.3625 22.5374 18.9387C22.9148 19.515 23.4521 19.9686 24.0834 20.2441V21.25H22.6667C21.9153 21.25 21.1946 21.5485 20.6632 22.0798C20.1319 22.6112 19.8334 23.3318 19.8334 24.0833V25.7975C19.2021 26.073 18.6648 26.5266 18.2874 27.1028C17.9099 27.679 17.7087 28.3528 17.7084 29.0416C17.7084 29.9809 18.0815 30.8818 18.7457 31.546C19.4099 32.2102 20.3107 32.5833 21.25 32.5833C22.1893 32.5833 23.0902 32.2102 23.7544 31.546C24.4186 30.8818 24.7917 29.9809 24.7917 29.0416C24.7914 28.3528 24.5901 27.679 24.2127 27.1028C23.8353 26.5266 23.298 26.073 22.6667 25.7975V24.0833H28.3334V25.7975C27.7021 26.073 27.1648 26.5266 26.7874 27.1028C26.4099 27.679 26.2087 28.3528 26.2084 29.0416C26.2084 29.9809 26.5815 30.8818 27.2457 31.546C27.9099 32.2102 28.8107 32.5833 29.75 32.5833C30.6893 32.5833 31.5902 32.2102 32.2544 31.546C32.9186 30.8818 33.2917 29.9809 33.2917 29.0416C33.2914 28.3528 33.0901 27.679 32.7127 27.1028C32.3353 26.5266 31.798 26.073 31.1667 25.7975V24.0833C31.1667 23.3318 30.8682 22.6112 30.3368 22.0798C29.8055 21.5485 29.0848 21.25 28.3334 21.25H26.9167V20.2441C27.548 19.9686 28.0853 19.515 28.4627 18.9387C28.8401 18.3625 29.0414 17.6888 29.0417 17C29.0414 16.3111 28.8401 15.6374 28.4627 15.0612C28.0853 14.485 27.548 14.0313 26.9167 13.7558V12.75C26.9167 11.9985 26.6182 11.2778 26.0868 10.7465C25.5555 10.2151 24.8348 9.91663 24.0834 9.91663H18.4167V8.20246C19.048 7.92693 19.5853 7.47329 19.9627 6.89708C20.3401 6.32087 20.5414 5.64711 20.5417 4.95829C20.5417 4.01898 20.1686 3.11815 19.5044 2.45396C18.8402 1.78976 17.9393 1.41663 17 1.41663ZM17 3.54163C17.3758 3.54163 17.7361 3.69088 18.0018 3.95656C18.2675 4.22223 18.4167 4.58257 18.4167 4.95829C18.4167 5.33402 18.2675 5.69435 18.0018 5.96003C17.7361 6.2257 17.3758 6.37496 17 6.37496C16.6243 6.37496 16.264 6.2257 15.9983 5.96003C15.7326 5.69435 15.5834 5.33402 15.5834 4.95829C15.5834 4.58257 15.7326 4.22223 15.9983 3.95656C16.264 3.69088 16.6243 3.54163 17 3.54163ZM8.50004 15.5833C8.87576 15.5833 9.2361 15.7325 9.50177 15.9982C9.76745 16.2639 9.91671 16.6242 9.91671 17C9.91671 17.3757 9.76745 17.736 9.50177 18.0017C9.2361 18.2674 8.87576 18.4166 8.50004 18.4166C8.12432 18.4166 7.76398 18.2674 7.49831 18.0017C7.23263 17.736 7.08337 17.3757 7.08337 17C7.08337 16.6242 7.23263 16.2639 7.49831 15.9982C7.76398 15.7325 8.12432 15.5833 8.50004 15.5833ZM25.5 15.5833C25.8758 15.5833 26.2361 15.7325 26.5018 15.9982C26.7675 16.2639 26.9167 16.6242 26.9167 17C26.9167 17.3757 26.7675 17.736 26.5018 18.0017C26.2361 18.2674 25.8758 18.4166 25.5 18.4166C25.1243 18.4166 24.764 18.2674 24.4983 18.0017C24.2326 17.736 24.0834 17.3757 24.0834 17C24.0834 16.6242 24.2326 16.2639 24.4983 15.9982C24.764 15.7325 25.1243 15.5833 25.5 15.5833ZM4.25004 27.625C4.62576 27.625 4.9861 27.7742 5.25178 28.0399C5.51745 28.3056 5.66671 28.6659 5.66671 29.0416C5.66671 29.4173 5.51745 29.7777 5.25178 30.0434C4.9861 30.309 4.62576 30.4583 4.25004 30.4583C3.87432 30.4583 3.51398 30.309 3.24831 30.0434C2.98263 29.7777 2.83337 29.4173 2.83337 29.0416C2.83337 28.6659 2.98263 28.3056 3.24831 28.0399C3.51398 27.7742 3.87432 27.625 4.25004 27.625ZM12.75 27.625C13.1258 27.625 13.4861 27.7742 13.7518 28.0399C14.0175 28.3056 14.1667 28.6659 14.1667 29.0416C14.1667 29.4173 14.0175 29.7777 13.7518 30.0434C13.4861 30.309 13.1258 30.4583 12.75 30.4583C12.3743 30.4583 12.014 30.309 11.7483 30.0434C11.4826 29.7777 11.3334 29.4173 11.3334 29.0416C11.3334 28.6659 11.4826 28.3056 11.7483 28.0399C12.014 27.7742 12.3743 27.625 12.75 27.625ZM21.25 27.625C21.6258 27.625 21.9861 27.7742 22.2518 28.0399C22.5175 28.3056 22.6667 28.6659 22.6667 29.0416C22.6667 29.4173 22.5175 29.7777 22.2518 30.0434C21.9861 30.309 21.6258 30.4583 21.25 30.4583C20.8743 30.4583 20.514 30.309 20.2483 30.0434C19.9826 29.7777 19.8334 29.4173 19.8334 29.0416C19.8334 28.6659 19.9826 28.3056 20.2483 28.0399C20.514 27.7742 20.8743 27.625 21.25 27.625ZM29.75 27.625C30.1258 27.625 30.4861 27.7742 30.7518 28.0399C31.0175 28.3056 31.1667 28.6659 31.1667 29.0416C31.1667 29.4173 31.0175 29.7777 30.7518 30.0434C30.4861 30.309 30.1258 30.4583 29.75 30.4583C29.3743 30.4583 29.014 30.309 28.7483 30.0434C28.4826 29.7777 28.3334 29.4173 28.3334 29.0416C28.3334 28.6659 28.4826 28.3056 28.7483 28.0399C29.014 27.7742 29.3743 27.625 29.75 27.625Z" fill="white"/>
</g>
</svg>
