<svg width="39" height="39" viewBox="0 0 39 39" fill="none" xmlns="http://www.w3.org/2000/svg">
<g id="material-symbols:folder-open-rounded">
<path id="Vector" d="M7.88279 32C7.09003 32 6.41113 31.706 5.8461 31.118C5.28107 30.53 4.99904 29.824 5 29V11C5 10.175 5.28252 9.4685 5.84754 8.8805C6.41257 8.2925 7.09099 7.999 7.88279 8H15.342C15.7264 8 16.093 8.075 16.4418 8.225C16.7906 8.375 17.0967 8.5875 17.36 8.8625L19.414 11H30.9451C31.7379 11 32.4168 11.294 32.9818 11.882C33.5468 12.47 33.8289 13.176 33.8279 14H10.7656C9.97282 14 9.29392 14.294 8.72889 14.882C8.16386 15.47 7.88183 16.176 7.88279 17V29L10.7295 19.1375C10.9217 18.4875 11.2763 17.9685 11.7933 17.5805C12.3103 17.1925 12.8806 16.999 13.5042 17H32.0982C33.0832 17 33.8582 17.4065 34.4232 18.2195C34.9882 19.0325 35.1381 19.9135 34.8729 20.8625L32.2784 29.8625C32.0862 30.5125 31.7316 31.0315 31.2147 31.4195C30.6977 31.8075 30.1274 32.001 29.5037 32H7.88279Z" fill="white"/>
</g>
</svg>
