<svg width="39" height="39" viewBox="0 0 39 39" fill="none" xmlns="http://www.w3.org/2000/svg">
<g id="mdi:user">
<path id="Vector" d="M19.5 6.5C21.2239 6.5 22.8772 7.18482 24.0962 8.40381C25.3152 9.62279 26 11.2761 26 13C26 14.7239 25.3152 16.3772 24.0962 17.5962C22.8772 18.8152 21.2239 19.5 19.5 19.5C17.7761 19.5 16.1228 18.8152 14.9038 17.5962C13.6848 16.3772 13 14.7239 13 13C13 11.2761 13.6848 9.62279 14.9038 8.40381C16.1228 7.18482 17.7761 6.5 19.5 6.5ZM19.5 22.75C26.6825 22.75 32.5 25.6588 32.5 29.25V32.5H6.5V29.25C6.5 25.6588 12.3175 22.75 19.5 22.75Z" fill="white"/>
</g>
</svg>
